<svg xmlns="http://www.w3.org/2000/svg" viewBox="0 0 272.12 349.07"><g id="Layer_2" data-name="Layer 2"><g id="Layer_1-2" data-name="Layer 1"><path d="M135.21,187.32l33.63-33.64Q186,136.51,195,119.59t10.13-33.45A69.88,69.88,0,0,0,200,54.35q-6.28-15.24-19.87-28.83Q161.67,7.06,140.65,1.93T97.07,5.27Q74.51,13.73,51.7,36.54l-19,19h0L4.38,83.86a15,15,0,0,0,0,21.15L111.19,211.82ZM69,50.24q16.36-16.37,33-23.36t32.51-3.61q15.9,3.38,30.34,17.82,13.48,13.48,17.1,29.61t-3.37,32.75q-7,16.62-23.36,33l-27.8,27.79a11.09,11.09,0,0,1-15.68,0L41.17,93.71a11.09,11.09,0,0,1,0-15.68Z"/><path d="M135.12,236l92.08,107.7a15.22,15.22,0,0,0,22.33.87l18.13-18.13a15.23,15.23,0,0,0-.87-22.33L158.92,211.89A2.85,2.85,0,0,0,154.4,213a32.3,32.3,0,0,1-7,11,37.73,37.73,0,0,1-11.26,7.54A2.85,2.85,0,0,0,135.12,236Z"/><path d="M111.19,211.82l8.7,8.7a6,6,0,0,0,6,1.55,27.89,27.89,0,0,0,11.6-7.32,30.05,30.05,0,0,0,7.6-12,6,6,0,0,0-1.51-6.09l-9-9Z"/><path d="M103.28,41.75a34.27,34.27,0,0,1,25.8-7.28,34.51,34.51,0,0,1,5.6,1.13,40.3,40.3,0,0,1,5.35,2,48.32,48.32,0,0,1,5,2.68,51.38,51.38,0,0,1,15.5,15.43c3.93,6.16,6.39,13.48,5.8,20.62a72.88,72.88,0,0,0-12-15.75c-1.11-1.13-2.29-2.2-3.45-3.27s-2.39-2.11-3.64-3.09-2.45-2-3.72-2.87-2.53-1.79-3.83-2.6A46.62,46.62,0,0,0,122.94,42a53,53,0,0,0-9.46-.86c-1.64,0-3.3.06-5,.16Z"/></g></g></svg>